<svg width="400" height="400" viewBox="0 0 400 400" fill="none" xmlns="http://www.w3.org/2000/svg">
<circle cx="200" cy="200" r="200" fill="black"/>
<path d="M217.262 87.4336L204.718 131.358L227.049 129.528L225.103 88.3432C224.89 83.819 218.505 83.0784 217.262 87.4336Z" fill="white" stroke="white"/>
<path d="M99.4783 219.559L103.571 214.589C103.643 214.502 103.707 214.409 103.763 214.311L182.203 77.218C183.132 75.594 185.583 76.0212 185.908 77.8638L196.154 135.948C196.323 136.904 197.153 137.601 198.124 137.601H231.564C232.179 137.601 232.76 137.884 233.139 138.368L251.81 162.207C252.128 162.614 252.593 162.882 253.105 162.954L366.617 178.971C368.415 179.225 368.972 181.551 367.483 182.591L291.993 235.33C291.657 235.565 291.257 235.691 290.848 235.691H228.949C228.226 235.691 227.56 236.081 227.206 236.71L179.939 320.74C176.238 327.319 166.861 327.583 162.797 321.222L99.3368 221.907C98.87 221.177 98.9271 220.228 99.4783 219.559Z" fill="white" stroke="white"/>
<path d="M55.2052 253.53C46.5127 250.625 45.9819 238.53 54.3865 234.875L117.323 207.503L120.297 275.283L55.2052 253.53Z" fill="white"/>
<path d="M96.7023 299.456C88.9063 301.699 81.8243 294.214 84.4945 286.554L108.733 217.02L167.468 279.095L96.7023 299.456Z" fill="white"/>
<path d="M231.219 282.545C235.188 290.806 226.878 299.61 218.402 296.124L154.929 270.019L201.5 220.682L231.219 282.545Z" fill="white"/>
<path d="M226.487 169.266L208.65 159.547C206.825 158.553 204.567 159.669 204.25 161.722L202.56 172.636C202.267 174.528 203.797 176.206 205.708 176.089L225.235 174.895C228.241 174.711 229.132 170.707 226.487 169.266Z" fill="black" stroke="black"/>
</svg>
